<?xml version="1.0" encoding="UTF-8"?>
<svg id="Calque_1" data-name="Calque 1" xmlns="http://www.w3.org/2000/svg" viewBox="0 0 800 800">
  <defs>
    <style>
      .cls-1 {
        fill: #17890b;
      }

      .cls-1, .cls-2, .cls-3 {
        stroke-width: 0px;
      }

      .cls-2 {
        fill: #ffc000;
      }

      .cls-3 {
        fill: #ff3320;
      }
    </style>
  </defs>
  <path class="cls-1" d="m226.59,344.25c-6.22,0-12.6.88-18.63-.18-12.73-2.25-19.77-10.82-22.63-23.16-1.44-6.21-2.55-12.55-4.63-18.54-7.38-21.27-30.85-30.15-48.01-27.73-25.07,3.54-39.24,17.05-43.22,43.73-6.23,41.71-1.97,82.66,12.84,122.29,1.31,3.49,3.05,6.86,4.97,10.12,9.91,16.88,29.11,26.27,48.41,23,5.95-1.01,7.14-2.65,6.22-6.84-2.28-10.38,1.23-18.58,9.67-24.94,19.65-14.81,43.43-14.19,61.7,2.37,11.19,10.14,20.21,22.21,26.99,35.75,6.54,13.06,4.77,25.54-4.23,36.91-14.37,18.16-33.78,28.23-55.83,33.41-32.81,7.71-65.56,8.19-97.57-3.76-29.92-11.17-50.33-33.2-65.71-60.31-15.64-27.56-24.25-57.5-27.5-88.83-2.02-19.43-3.32-39.07-3.06-58.58.4-30.15,5.22-59.69,19.69-86.76,18.14-33.92,46.92-53.26,84.39-59.97,28.44-5.09,56.53-3.46,83.35,7.83,38.34,16.15,59.74,46.23,67.68,86.24,2.22,11.18,3.01,22.76,3.31,34.2.33,12.44-9.17,23.16-21.6,23.83-5.52.3-11.06.05-16.59.05,0-.05,0-.11,0-.16Z"/>
  <path class="cls-3" d="m717.97,520.74c8.38,0,16.2.15,24-.17,1.09-.04,2.66-2.21,3.02-3.64,2.28-9.03,4.36-18.11,6.34-27.2.93-4.26,3.27-6.32,7.68-6.09,2.56.13,5.13.03,7.69.09,6.97.15,8.49,1.8,7.14,8.76-1.76,9.11-3.92,18.14-6.09,28.08,5.86,0,11.24.06,16.61-.01,9.43-.14,10.29.84,8.62,10.02-.2,1.08-.28,2.18-.49,3.26-1.55,7.95-2.37,8.62-10.48,8.64-5.13,0-10.26.15-15.38-.04-3.06-.12-4.6.81-5.28,3.98-1.59,7.42-3.55,14.77-5.53,22.84,6.95,0,12.96.15,18.96-.05,4.65-.15,6.33,1.96,5.78,6.34-.09.73-.08,1.47-.19,2.19q-1.97,13.23-15.28,13.29c-16.3.08-13.74.06-18.91,21.2-.83,3.4-1.44,6.85-2.18,10.27-.84,3.85-2.88,6.06-7.09,5.93-3.48-.11-6.96.05-10.44-.13-4.97-.26-6.45-2.17-5.48-7.17.98-5.02,2.16-10,3.3-14.98,1.09-4.79,2.22-9.56,3.51-15.1-8.56,0-16.56-.14-24.53.17-1.06.04-2.62,2.21-2.96,3.64-2.02,8.34-3.7,16.77-5.59,25.14-1.8,7.97-2.18,8.24-10.13,8.39-2.38.05-4.77.07-7.14-.03-5.87-.27-7.14-1.78-5.91-7.64,1.69-8.05,3.64-16.04,5.45-24.07.35-1.57.6-3.16,1.06-5.66-7.07,0-13.58.07-20.1-.02-5.3-.08-7.08-2.31-6.32-7.6.03-.18.1-.35.13-.53,3.12-16.66,2.6-13.32,16.07-13.54,3.11-.05,6.27-.32,9.33.1,4.79.66,6.98-1.19,7.82-5.88,1.22-6.8,2.93-13.51,4.6-21.02-6.36,0-12.33.02-18.31,0-7.67-.03-8.73-1.22-7.88-8.62,1.51-13.03,1.7-13.2,14.73-13.09.73,0,1.47.02,2.2.02,16.77.03,13.69.02,19.24-23.24.51-2.12.86-4.29,1.22-6.44.86-5.08,3.26-7.95,8.67-7.47,2.18.19,4.39,0,6.59.03,8.68.12,9.81,1.62,7.86,10.34-1.94,8.7-3.87,17.41-5.95,26.74Zm-11.76,48.51c8.92,0,16.57.11,24.21-.12,1.19-.04,3.07-1.43,3.37-2.54,2.08-7.7,3.82-15.49,5.86-24.07-8.83,0-17-.05-25.16.09-.77.01-1.99,1.11-2.2,1.92-2.04,7.88-3.92,15.81-6.08,24.72Z"/>
  <g>
    <path class="cls-1" d="m368.58,280.07c7.74-4.22,16.81-6.34,27.2-6.34,12.15,0,23.14,3.08,33,9.24,9.86,6.16,17.64,14.96,23.37,26.4,5.72,11.44,8.58,24.73,8.58,39.87s-2.86,28.47-8.58,40c-5.72,11.53-13.51,20.42-23.37,26.67-9.86,6.25-20.86,9.37-33,9.37-10.21,0-19.23-2.11-27.06-6.34-7.83-4.22-13.95-9.68-18.35-16.37v82.23c0,4.75-3.85,8.6-8.6,8.6h-27.95c-4.75,0-8.6-3.85-8.6-8.6v-200.36c0-4.75,3.85-8.6,8.6-8.6h27.95c4.75,0,8.6,3.85,8.6,8.6v12.26c4.4-6.87,10.47-12.41,18.22-16.63Zm36.83,42.64c-6.25-6.42-13.95-9.64-23.1-9.64s-16.59,3.26-22.84,9.77c-6.25,6.51-9.37,15.4-9.37,26.67s3.12,20.16,9.37,26.67c6.25,6.51,13.86,9.77,22.84,9.77s16.63-3.3,22.97-9.9c6.34-6.6,9.51-15.53,9.51-26.8s-3.13-20.11-9.37-26.54Z"/>
    <path class="cls-1" d="m622.58,360.34h-102.18c.7,9.15,3.65,16.15,8.85,20.99,5.19,4.84,11.57,7.26,19.14,7.26,11.26,0,19.1-4.75,23.5-14.26h48.05c-2.47,9.68-6.91,18.4-13.33,26.14-6.43,7.75-14.48,13.82-24.16,18.22-9.68,4.4-20.51,6.6-32.48,6.6-14.44,0-27.29-3.08-38.55-9.24-11.27-6.16-20.07-14.96-26.4-26.4-6.34-11.44-9.51-24.82-9.51-40.13s3.12-28.69,9.37-40.13c6.25-11.44,15-20.24,26.27-26.4,11.26-6.16,24.2-9.24,38.81-9.24s26.93,3,38.02,8.98c11.09,5.99,19.76,14.52,26.01,25.61,6.25,11.09,9.37,24.03,9.37,38.81,0,4.22-.26,8.63-.79,13.2Zm-45.41-25.08c0-7.74-2.64-13.9-7.92-18.48-5.28-4.58-11.88-6.86-19.8-6.86s-13.95,2.2-19.14,6.6c-5.19,4.4-8.41,10.65-9.64,18.75h56.5Z"/>
    <path class="cls-1" d="m778.23,291.03c10.3,11.18,15.45,26.54,15.45,46.07v77.48c0,4.75-3.85,8.6-8.6,8.6h-27.69c-4.75,0-8.6-3.85-8.6-8.6v-71.4c0-9.86-2.56-17.51-7.66-22.97-5.11-5.45-11.97-8.18-20.59-8.18s-15.49,2.73-20.59,8.18c-5.11,5.46-7.66,13.11-7.66,22.97v71.4c0,4.75-3.85,8.6-8.6,8.6h-27.95c-4.75,0-8.6-3.85-8.6-8.6v-130.13c0-4.75,3.85-8.6,8.6-8.6h27.95c4.75,0,8.6,3.85,8.6,8.6v10.94c4.57-6.51,10.73-11.66,18.48-15.45,7.74-3.78,16.46-5.68,26.14-5.68,17.25,0,31.02,5.59,41.32,16.77Z"/>
  </g>
  <g>
    <path class="cls-1" d="m96.16,603.92v81.77h-16.46c-4.75,0-8.6-3.85-8.6-8.6v-2.54c-2.54,3.61-5.99,6.52-10.33,8.72-4.35,2.2-9.16,3.3-14.43,3.3-6.25,0-11.77-1.39-16.56-4.18-4.79-2.78-8.5-6.81-11.14-12.09s-3.96-11.48-3.96-18.61v-47.77h16.31c4.75,0,8.6,3.85,8.6,8.6v35.8c0,5.47,1.41,9.72,4.25,12.75,2.83,3.03,6.64,4.54,11.43,4.54s8.74-1.51,11.58-4.54c2.83-3.03,4.25-7.28,4.25-12.75v-35.8c0-4.75,3.85-8.6,8.6-8.6h16.46Z"/>
    <path class="cls-1" d="m128.4,683.2c-5.57-2.44-9.96-5.79-13.19-10.04-3.22-4.25-5.03-9.01-5.42-14.29h24.77c.29,2.83,1.61,5.13,3.96,6.89,2.34,1.76,5.23,2.64,8.65,2.64,3.12,0,5.54-.61,7.25-1.83,1.71-1.22,2.56-2.81,2.56-4.76,0-2.34-1.22-4.08-3.66-5.2-2.44-1.12-6.4-2.37-11.87-3.74-5.86-1.37-10.75-2.81-14.65-4.32-3.91-1.51-7.28-3.91-10.11-7.18-2.83-3.27-4.25-7.69-4.25-13.26,0-4.69,1.29-8.96,3.88-12.82,2.59-3.86,6.4-6.91,11.43-9.16,5.03-2.25,11.01-3.37,17.95-3.37,10.26,0,18.34,2.54,24.25,7.62,5.91,5.08,9.31,11.82,10.19,20.22h-23.15c-.39-2.83-1.64-5.08-3.74-6.74-2.1-1.66-4.86-2.49-8.28-2.49-2.93,0-5.18.56-6.74,1.68-1.56,1.12-2.34,2.66-2.34,4.62,0,2.34,1.25,4.1,3.74,5.28s6.37,2.34,11.65,3.52c6.06,1.56,10.99,3.1,14.8,4.62,3.81,1.52,7.16,3.96,10.04,7.33,2.88,3.37,4.37,7.89,4.47,13.56,0,4.79-1.34,9.06-4.03,12.82-2.69,3.76-6.55,6.72-11.58,8.87-5.03,2.15-10.87,3.22-17.51,3.22-7.13,0-13.48-1.22-19.05-3.66Z"/>
    <path class="cls-1" d="m210.17,683.2c-5.57-2.44-9.96-5.79-13.19-10.04-3.22-4.25-5.03-9.01-5.42-14.29h24.77c.29,2.83,1.61,5.13,3.96,6.89,2.34,1.76,5.23,2.64,8.65,2.64,3.12,0,5.54-.61,7.25-1.83,1.71-1.22,2.56-2.81,2.56-4.76,0-2.34-1.22-4.08-3.66-5.2-2.44-1.12-6.4-2.37-11.87-3.74-5.86-1.37-10.75-2.81-14.65-4.32-3.91-1.51-7.28-3.91-10.11-7.18-2.83-3.27-4.25-7.69-4.25-13.26,0-4.69,1.29-8.96,3.88-12.82,2.59-3.86,6.4-6.91,11.43-9.16,5.03-2.25,11.01-3.37,17.95-3.37,10.26,0,18.34,2.54,24.25,7.62,5.91,5.08,9.31,11.82,10.19,20.22h-23.15c-.39-2.83-1.64-5.08-3.74-6.74-2.1-1.66-4.86-2.49-8.28-2.49-2.93,0-5.18.56-6.74,1.68-1.56,1.12-2.34,2.66-2.34,4.62,0,2.34,1.25,4.1,3.74,5.28,2.49,1.17,6.37,2.34,11.65,3.52,6.06,1.56,10.99,3.1,14.8,4.62,3.81,1.52,7.16,3.96,10.04,7.33,2.88,3.37,4.37,7.89,4.47,13.56,0,4.79-1.34,9.06-4.03,12.82-2.69,3.76-6.55,6.72-11.58,8.87-5.03,2.15-10.87,3.22-17.51,3.22-7.13,0-13.48-1.22-19.05-3.66Z"/>
    <path class="cls-1" d="m277.51,622.53c3.17-6.35,7.5-11.23,12.97-14.66,5.47-3.42,11.58-5.13,18.32-5.13,5.37,0,10.28,1.12,14.73,3.37,4.44,2.25,7.94,5.28,10.48,9.09v-37.96h16.46c4.75,0,8.6,3.85,8.6,8.6v99.84h-16.46c-4.75,0-8.6-3.85-8.6-8.6v-3.12c-2.34,3.91-5.69,7.03-10.04,9.38-4.35,2.34-9.4,3.52-15.17,3.52-6.74,0-12.85-1.73-18.32-5.2-5.47-3.47-9.8-8.4-12.97-14.8-3.18-6.4-4.76-13.8-4.76-22.2s1.59-15.78,4.76-22.13Zm51.29,7.47c-3.44-3.58-7.63-5.39-12.56-5.42-3.43-.02-6.75.91-9.63,2.77-5.58,3.61-8.36,9.38-8.36,17.3,0,6.25,1.73,11.21,5.2,14.87,3.47,3.66,7.69,5.5,12.68,5.5s9.21-1.81,12.68-5.42c3.47-3.61,5.2-8.55,5.2-14.8s-1.74-11.18-5.2-14.8Z"/>
    <path class="cls-1" d="m440.24,623.85v20.81h-64.48v-20.81h64.48Z"/>
    <path class="cls-1" d="m476.44,683.2c-5.57-2.44-9.97-5.79-13.19-10.04-3.22-4.25-5.03-9.01-5.42-14.29h24.77c.29,2.83,1.61,5.13,3.96,6.89,2.34,1.76,5.23,2.64,8.65,2.64,3.13,0,5.54-.61,7.25-1.83,1.71-1.22,2.56-2.81,2.56-4.76,0-2.34-1.22-4.08-3.66-5.2-2.44-1.12-6.4-2.37-11.87-3.74-5.86-1.37-10.75-2.81-14.65-4.32-3.91-1.51-7.28-3.91-10.11-7.18-2.83-3.27-4.25-7.69-4.25-13.26,0-4.69,1.29-8.96,3.88-12.82,2.59-3.86,6.4-6.91,11.43-9.16,5.03-2.25,11.01-3.37,17.95-3.37,10.26,0,18.34,2.54,24.25,7.62,5.91,5.08,9.31,11.82,10.19,20.22h-23.16c-.39-2.83-1.64-5.08-3.74-6.74-2.1-1.66-4.86-2.49-8.28-2.49-2.93,0-5.18.56-6.74,1.68-1.56,1.12-2.35,2.66-2.35,4.62,0,2.34,1.25,4.1,3.74,5.28,2.49,1.17,6.38,2.34,11.65,3.52,6.06,1.56,10.99,3.1,14.8,4.62,3.81,1.52,7.16,3.96,10.04,7.33,2.88,3.37,4.37,7.89,4.47,13.56,0,4.79-1.34,9.06-4.03,12.82-2.69,3.76-6.55,6.72-11.58,8.87-5.03,2.15-10.87,3.22-17.51,3.22-7.13,0-13.48-1.22-19.05-3.66Z"/>
    <path class="cls-1" d="m616.76,612.34c5.71,6.21,8.57,14.73,8.57,25.57v47.77h-16.31c-4.75,0-8.6-3.85-8.6-8.6v-35.8c0-5.47-1.42-9.72-4.25-12.75-2.83-3.03-6.64-4.54-11.43-4.54s-8.6,1.52-11.43,4.54c-2.83,3.03-4.25,7.28-4.25,12.75v44.4h-16.46c-4.75,0-8.6-3.85-8.6-8.6v-73.17h16.46c4.75,0,8.6,3.85,8.6,8.6v2.25c2.54-3.61,5.96-6.47,10.26-8.57,4.3-2.1,9.13-3.15,14.51-3.15,9.57,0,17.22,3.1,22.93,9.31Z"/>
  </g>
  <g>
    <path class="cls-2" d="m263.28,154.77c-6.43,0-11.6,5.39-11.26,11.89.32,6.09,5.69,10.57,11.79,10.67,16.65.28,30.14,13.77,30.42,30.42.1,6.1,4.58,11.47,10.68,11.79,6.5.34,11.88-4.84,11.88-11.26,0-29.5-24-53.51-53.51-53.51Z"/>
    <path class="cls-2" d="m269.42,113.14c-6.39,0-11.54,5.32-11.26,11.77.26,6.17,5.69,10.74,11.86,10.8,36.17.32,65.53,29.68,65.85,65.86.05,6.17,4.63,11.6,10.8,11.86s11.76-4.88,11.76-11.27c0-49.08-39.93-89.01-89-89.01Z"/>
  </g>
</svg>