<?xml version="1.0" encoding="UTF-8"?>
<svg id="Calque_1" data-name="Calque 1" xmlns="http://www.w3.org/2000/svg" viewBox="0 0 800 800">
  <defs>
    <style>
      .cls-1 {
        fill: #17890b;
      }

      .cls-1, .cls-2, .cls-3 {
        stroke-width: 0px;
      }

      .cls-2 {
        fill: #ffc000;
      }

      .cls-3 {
        fill: #ff3320;
      }
    </style>
  </defs>
  <path class="cls-1" d="m308.6,370.62c-3.28,0-6.64.46-9.82-.1-6.71-1.18-10.42-5.7-11.93-12.21-.76-3.27-1.34-6.61-2.44-9.77-3.89-11.21-16.26-15.89-25.3-14.62-13.21,1.86-20.68,8.99-22.78,23.05-3.28,21.98-1.04,43.57,6.77,64.46.69,1.84,1.61,3.62,2.62,5.33,5.22,8.9,15.34,13.84,25.51,12.12,3.13-.53,3.76-1.39,3.28-3.6-1.2-5.47.65-9.79,5.09-13.14,10.36-7.81,22.89-7.48,32.52,1.25,5.9,5.35,10.65,11.71,14.22,18.84,3.45,6.88,2.51,13.46-2.23,19.45-7.58,9.57-17.8,14.88-29.43,17.61-17.29,4.07-34.56,4.32-51.42-1.98-15.77-5.89-26.52-17.5-34.63-31.79-8.24-14.52-12.78-30.31-14.49-46.82-1.06-10.24-1.75-20.59-1.61-30.88.21-15.89,2.75-31.46,10.38-45.73,9.56-17.88,24.73-28.07,44.48-31.61,14.99-2.68,29.79-1.82,43.93,4.13,20.21,8.51,31.49,24.36,35.67,45.46,1.17,5.9,1.59,12,1.75,18.03.17,6.56-4.83,12.21-11.39,12.56-2.91.16-5.83.03-8.74.03,0-.03,0-.06,0-.08Z"/>
  <path class="cls-3" d="m567.59,463.64c4.42,0,8.54.08,12.65-.09.57-.02,1.4-1.16,1.59-1.92,1.2-4.76,2.3-9.54,3.34-14.34.49-2.25,1.73-3.33,4.05-3.21,1.35.07,2.7.02,4.05.05,3.67.08,4.47.95,3.76,4.62-.93,4.8-2.06,9.56-3.21,14.8,3.09,0,5.92.03,8.76,0,4.97-.07,5.43.44,4.55,5.28-.1.57-.15,1.15-.26,1.72-.82,4.19-1.25,4.55-5.52,4.55-2.7,0-5.41.08-8.11-.02-1.61-.06-2.42.42-2.78,2.1-.84,3.91-1.87,7.78-2.92,12.04,3.66,0,6.83.08,9.99-.03,2.45-.08,3.34,1.03,3.05,3.34-.05.38-.04.77-.1,1.15q-1.04,6.97-8.05,7c-8.59.04-7.24.03-9.97,11.17-.44,1.79-.76,3.61-1.15,5.41-.44,2.03-1.52,3.19-3.73,3.12-1.83-.06-3.67.03-5.5-.07-2.62-.14-3.4-1.14-2.89-3.78.51-2.64,1.14-5.27,1.74-7.9.57-2.52,1.17-5.04,1.85-7.96-4.51,0-8.73-.07-12.93.09-.56.02-1.38,1.17-1.56,1.92-1.06,4.4-1.95,8.84-2.95,13.25-.95,4.2-1.15,4.34-5.34,4.42-1.25.02-2.51.04-3.76-.02-3.09-.14-3.76-.94-3.11-4.03.89-4.24,1.92-8.46,2.87-12.68.19-.83.32-1.67.56-2.98-3.73,0-7.16.04-10.59-.01-2.8-.04-3.73-1.22-3.33-4.01.01-.09.05-.19.07-.28,1.65-8.78,1.37-7.02,8.47-7.14,1.64-.03,3.31-.17,4.92.05,2.53.35,3.68-.63,4.12-3.1.64-3.58,1.54-7.12,2.42-11.08-3.35,0-6.5,0-9.65,0-4.04-.02-4.6-.64-4.15-4.54.8-6.87.9-6.96,7.76-6.9.39,0,.77,0,1.16.01,8.84.01,7.21.01,10.14-12.25.27-1.12.45-2.26.64-3.4.45-2.68,1.72-4.19,4.57-3.94,1.15.1,2.32,0,3.47.02,4.57.06,5.17.85,4.14,5.45-1.02,4.59-2.04,9.17-3.13,14.09Zm-6.2,25.57c4.7,0,8.73.06,12.76-.06.63-.02,1.62-.75,1.77-1.34,1.09-4.06,2.01-8.16,3.09-12.69-4.65,0-8.96-.03-13.26.05-.41,0-1.05.59-1.16,1.01-1.08,4.15-2.06,8.33-3.2,13.03Z"/>
  <g>
    <path class="cls-1" d="m383.44,336.79c4.08-2.23,8.86-3.34,14.33-3.34,6.4,0,12.2,1.62,17.39,4.87,5.2,3.25,9.3,7.89,12.32,13.92,3.01,6.03,4.52,13.04,4.52,21.01s-1.51,15.01-4.52,21.08c-3.02,6.08-7.12,10.76-12.32,14.06-5.2,3.29-10.99,4.94-17.39,4.94-5.38,0-10.14-1.11-14.26-3.34-4.13-2.23-7.35-5.1-9.67-8.63v43.34c0,2.5-2.03,4.53-4.53,4.53h-14.73c-2.5,0-4.53-2.03-4.53-4.53v-105.6c0-2.5,2.03-4.53,4.53-4.53h14.73c2.5,0,4.53,2.03,4.53,4.53v6.46c2.32-3.62,5.52-6.54,9.6-8.77Zm19.41,22.47c-3.29-3.39-7.35-5.08-12.18-5.08s-8.75,1.72-12.04,5.15c-3.29,3.43-4.94,8.12-4.94,14.06s1.65,10.62,4.94,14.06c3.29,3.43,7.31,5.15,12.04,5.15s8.77-1.74,12.11-5.22,5.01-8.19,5.01-14.12-1.65-10.6-4.94-13.99Z"/>
    <path class="cls-1" d="m517.31,379.09h-53.86c.37,4.82,1.92,8.51,4.66,11.06,2.74,2.55,6.1,3.83,10.09,3.83,5.94,0,10.07-2.5,12.39-7.51h25.33c-1.3,5.1-3.64,9.7-7.03,13.78-3.39,4.08-7.63,7.28-12.73,9.6-5.1,2.32-10.81,3.48-17.12,3.48-7.61,0-14.38-1.62-20.32-4.87-5.94-3.25-10.58-7.88-13.92-13.92-3.34-6.03-5.01-13.08-5.01-21.15s1.65-15.12,4.94-21.15c3.29-6.03,7.91-10.67,13.85-13.92,5.94-3.25,12.75-4.87,20.46-4.87s14.19,1.58,20.04,4.73c5.84,3.16,10.41,7.65,13.71,13.5,3.29,5.84,4.94,12.66,4.94,20.46,0,2.23-.14,4.55-.42,6.96Zm-23.94-13.22c0-4.08-1.39-7.33-4.17-9.74-2.78-2.41-6.26-3.62-10.44-3.62s-7.35,1.16-10.09,3.48c-2.74,2.32-4.43,5.61-5.08,9.88h29.78Z"/>
    <path class="cls-1" d="m599.35,342.57c5.43,5.89,8.14,13.99,8.14,24.28v40.83c0,2.5-2.03,4.53-4.53,4.53h-14.59c-2.5,0-4.53-2.03-4.53-4.53v-37.63c0-5.19-1.35-9.23-4.04-12.11-2.69-2.87-6.31-4.31-10.85-4.31s-8.17,1.44-10.85,4.31c-2.69,2.88-4.04,6.91-4.04,12.11v37.63c0,2.5-2.03,4.53-4.53,4.53h-14.73c-2.5,0-4.53-2.03-4.53-4.53v-68.59c0-2.5,2.03-4.53,4.53-4.53h14.73c2.5,0,4.53,2.03,4.53,4.53v5.77c2.41-3.43,5.66-6.15,9.74-8.14,4.08-1.99,8.67-2.99,13.78-2.99,9.09,0,16.35,2.95,21.78,8.84Z"/>
  </g>
  <g>
    <path class="cls-1" d="m239.86,507.48v43.1h-8.68c-2.5,0-4.53-2.03-4.53-4.53v-1.34c-1.34,1.91-3.15,3.44-5.45,4.6-2.29,1.16-4.83,1.74-7.61,1.74-3.3,0-6.21-.73-8.73-2.2-2.52-1.47-4.48-3.59-5.87-6.37s-2.09-6.05-2.09-9.81v-25.18h8.6c2.5,0,4.53,2.03,4.53,4.53v18.87c0,2.88.75,5.12,2.24,6.72,1.49,1.6,3.5,2.39,6.02,2.39s4.61-.8,6.1-2.39c1.49-1.6,2.24-3.84,2.24-6.72v-18.87c0-2.5,2.03-4.53,4.53-4.53h8.68Z"/>
    <path class="cls-1" d="m256.85,549.26c-2.94-1.29-5.25-3.05-6.95-5.29-1.7-2.24-2.65-4.75-2.86-7.53h13.05c.15,1.49.85,2.7,2.09,3.63,1.24.93,2.75,1.39,4.56,1.39,1.65,0,2.92-.32,3.82-.96.9-.64,1.35-1.48,1.35-2.51,0-1.24-.64-2.15-1.93-2.74-1.29-.59-3.37-1.25-6.26-1.97-3.09-.72-5.66-1.48-7.72-2.28-2.06-.8-3.84-2.06-5.33-3.78-1.49-1.72-2.24-4.06-2.24-6.99,0-2.47.68-4.72,2.05-6.76,1.36-2.03,3.37-3.64,6.02-4.83,2.65-1.18,5.81-1.78,9.46-1.78,5.41,0,9.67,1.34,12.78,4.02,3.11,2.68,4.9,6.23,5.37,10.66h-12.2c-.21-1.49-.86-2.68-1.97-3.55-1.11-.88-2.56-1.31-4.36-1.31-1.54,0-2.73.3-3.55.89-.82.59-1.24,1.4-1.24,2.43,0,1.24.66,2.16,1.97,2.78s3.36,1.24,6.14,1.85c3.19.82,5.79,1.64,7.8,2.43,2.01.8,3.77,2.08,5.29,3.86,1.52,1.78,2.3,4.16,2.36,7.14,0,2.52-.71,4.78-2.12,6.76-1.42,1.98-3.45,3.54-6.1,4.67-2.65,1.13-5.73,1.7-9.23,1.7-3.76,0-7.11-.64-10.04-1.93Z"/>
    <path class="cls-1" d="m299.95,549.26c-2.94-1.29-5.25-3.05-6.95-5.29-1.7-2.24-2.65-4.75-2.86-7.53h13.05c.15,1.49.85,2.7,2.09,3.63,1.24.93,2.75,1.39,4.56,1.39,1.65,0,2.92-.32,3.82-.96.9-.64,1.35-1.48,1.35-2.51,0-1.24-.64-2.15-1.93-2.74-1.29-.59-3.37-1.25-6.26-1.97-3.09-.72-5.66-1.48-7.72-2.28-2.06-.8-3.84-2.06-5.33-3.78-1.49-1.72-2.24-4.06-2.24-6.99,0-2.47.68-4.72,2.05-6.76,1.36-2.03,3.37-3.64,6.02-4.83,2.65-1.18,5.81-1.78,9.46-1.78,5.41,0,9.67,1.34,12.78,4.02,3.11,2.68,4.9,6.23,5.37,10.66h-12.2c-.21-1.49-.86-2.68-1.97-3.55-1.11-.88-2.56-1.31-4.36-1.31-1.54,0-2.73.3-3.55.89-.82.59-1.24,1.4-1.24,2.43,0,1.24.66,2.16,1.97,2.78s3.36,1.24,6.14,1.85c3.19.82,5.79,1.64,7.8,2.43,2.01.8,3.77,2.08,5.29,3.86,1.52,1.78,2.3,4.16,2.36,7.14,0,2.52-.71,4.78-2.12,6.76-1.42,1.98-3.45,3.54-6.1,4.67-2.65,1.13-5.73,1.7-9.23,1.7-3.76,0-7.11-.64-10.04-1.93Z"/>
    <path class="cls-1" d="m335.44,517.29c1.67-3.35,3.95-5.92,6.84-7.72,2.88-1.8,6.1-2.7,9.65-2.7,2.83,0,5.42.59,7.76,1.78,2.34,1.19,4.18,2.78,5.52,4.79v-20h8.68c2.5,0,4.53,2.03,4.53,4.53v52.62h-8.68c-2.5,0-4.53-2.03-4.53-4.53v-1.65c-1.24,2.06-3,3.71-5.29,4.94-2.29,1.24-4.96,1.85-7.99,1.85-3.55,0-6.77-.91-9.65-2.74-2.88-1.83-5.16-4.43-6.84-7.8-1.67-3.37-2.51-7.27-2.51-11.7s.84-8.31,2.51-11.66Zm27.03,3.94c-1.81-1.89-4.02-2.84-6.62-2.86-1.81-.01-3.56.48-5.08,1.46-2.94,1.9-4.41,4.94-4.41,9.12,0,3.3.91,5.91,2.74,7.84,1.83,1.93,4.05,2.9,6.68,2.9s4.85-.95,6.68-2.86c1.83-1.9,2.74-4.51,2.74-7.8s-.92-5.89-2.74-7.8Z"/>
    <path class="cls-1" d="m421.21,517.98v10.97h-33.98v-10.97h33.98Z"/>
    <path class="cls-1" d="m440.29,549.26c-2.94-1.29-5.25-3.05-6.95-5.29-1.7-2.24-2.65-4.75-2.86-7.53h13.05c.16,1.49.85,2.7,2.09,3.63,1.24.93,2.75,1.39,4.56,1.39,1.65,0,2.92-.32,3.82-.96.9-.64,1.35-1.48,1.35-2.51,0-1.24-.64-2.15-1.93-2.74-1.29-.59-3.37-1.25-6.26-1.97-3.09-.72-5.67-1.48-7.72-2.28-2.06-.8-3.84-2.06-5.33-3.78-1.49-1.72-2.24-4.06-2.24-6.99,0-2.47.68-4.72,2.05-6.76,1.36-2.03,3.37-3.64,6.02-4.83,2.65-1.18,5.8-1.78,9.46-1.78,5.41,0,9.67,1.34,12.78,4.02,3.12,2.68,4.9,6.23,5.37,10.66h-12.2c-.21-1.49-.86-2.68-1.97-3.55-1.11-.88-2.56-1.31-4.36-1.31-1.54,0-2.73.3-3.55.89-.82.59-1.24,1.4-1.24,2.43,0,1.24.66,2.16,1.97,2.78,1.31.62,3.36,1.24,6.14,1.85,3.19.82,5.79,1.64,7.8,2.43,2.01.8,3.77,2.08,5.29,3.86,1.52,1.78,2.3,4.16,2.36,7.14,0,2.52-.71,4.78-2.12,6.76-1.42,1.98-3.45,3.54-6.1,4.67-2.65,1.13-5.73,1.7-9.23,1.7-3.76,0-7.11-.64-10.04-1.93Z"/>
    <path class="cls-1" d="m514.24,511.92c3.01,3.27,4.52,7.76,4.52,13.48v25.18h-8.6c-2.5,0-4.53-2.03-4.53-4.53v-18.87c0-2.88-.75-5.12-2.24-6.72-1.49-1.59-3.5-2.39-6.02-2.39s-4.53.8-6.02,2.39c-1.49,1.6-2.24,3.84-2.24,6.72v23.4h-8.67c-2.5,0-4.53-2.03-4.53-4.53v-38.57h8.67c2.5,0,4.53,2.03,4.53,4.53v1.18c1.34-1.9,3.14-3.41,5.41-4.52,2.26-1.11,4.81-1.66,7.65-1.66,5.05,0,9.08,1.64,12.09,4.91Z"/>
  </g>
  <g>
    <path class="cls-2" d="m327.94,270.75c-3.39,0-6.12,2.84-5.93,6.27.17,3.21,3,5.57,6.21,5.62,8.78.15,15.89,7.26,16.03,16.03.05,3.22,2.42,6.05,5.63,6.21,3.43.18,6.26-2.55,6.26-5.94,0-15.55-12.65-28.2-28.2-28.2Z"/>
    <path class="cls-2" d="m331.18,248.81c-3.37,0-6.08,2.8-5.94,6.2.14,3.25,3,5.66,6.25,5.69,19.06.17,34.54,15.64,34.71,34.71.03,3.25,2.44,6.11,5.69,6.25s6.2-2.57,6.2-5.94c0-25.87-21.04-46.91-46.91-46.91Z"/>
  </g>
</svg>